# xmcd CD database file
# Copyright (C) 1996 Ti Kan
#
# Track frame offsets:
# 	150
# 	15532
# 	25220
# 	40115
# 	50622
# 	66052
# 	79707
# 	93527
# 	106570
# 	124320
# 	136910
# 	149055
#
# Disc length: 2145 seconds
#
# Revision: 1
# Processed by: cddbd v1.4b41PL1 Copyright (c) Steve Scherf et al.
# Submitted via: DiscPlay 3.4.1
#
DISCID=9e085f0c
DTITLE=SUSAN MC CANN - YOU GAVE ME LOVE
DYEAR=1900
DGENRE=
TTITLE0=CHILD SUPPORT
TTITLE1=HEAVENS GONNA BE A BLAST
TTITLE2=WHY ME LORD
TTITLE3=HEAVENS JUST A SIN AWAY
TTITLE4=IT IS NO SECRET
TTITLE5=HOW GREAT THOU ART
TTITLE6=YOU GAVE ME LOVE
TTITLE7=JUST A CLOSER WALK WIH THEE
TTITLE8=MORE PRECIOUS THAN EVER
TTITLE9=THE OLD RUGGED CROSS
TTITLE10=DEAR GOD
TTITLE11=AMAZING GRACE
EXTD=
EXTT0=
EXTT1=
EXTT2=
EXTT3=
EXTT4=
EXTT5=
EXTT6=
EXTT7=
EXTT8=
EXTT9=
EXTT10=
EXTT11=
PLAYORDER=
